<svg xmlns="http://www.w3.org/2000/svg" viewBox="0 0 390 844" preserveAspectRatio="xMidYMid slice">
  <defs>
    <!-- Rich Multi-Stop Background Gradient -->
    <linearGradient id="backgroundGradient" x1="0%" y1="0%" x2="100%" y2="100%">
      <stop offset="0%" style="stop-color:#0A0F1D;stop-opacity:1" />
      <stop offset="25%" style="stop-color:#111827;stop-opacity:1" />
      <stop offset="50%" style="stop-color:#0F172A;stop-opacity:1" />
      <stop offset="75%" style="stop-color:#111827;stop-opacity:1" />
      <stop offset="100%" style="stop-color:#0A0F1D;stop-opacity:1" />
    </linearGradient>

    <!-- Sophisticated Accent Gradient -->
    <linearGradient id="accentGradient" x1="0%" y1="0%" x2="100%" y2="0%">
      <stop offset="0%" style="stop-color:#3B82F6;stop-opacity:0.12" />
      <stop offset="50%" style="stop-color:#60A5FA;stop-opacity:0.08" />
      <stop offset="100%" style="stop-color:#3B82F6;stop-opacity:0.12" />
    </linearGradient>

    <!-- Premium Pattern -->
    <pattern id="luxuryPattern" width="50" height="50" patternUnits="userSpaceOnUse">
      <path d="M25,0 L50,25 L25,50 L0,25 Z" fill="none" stroke="#334155" stroke-width="0.5" opacity="0.15"/>
      <circle cx="25" cy="25" r="2" fill="#334155" opacity="0.1"/>
    </pattern>

    <!-- Arabic-Inspired Pattern -->
    <pattern id="arabicPattern" width="100" height="100" patternUnits="userSpaceOnUse">
      <path d="M0,0 Q50,0 50,50 T100,100" fill="none" stroke="#334155" stroke-width="0.5" opacity="0.1"/>
      <path d="M100,0 Q50,0 50,50 T0,100" fill="none" stroke="#334155" stroke-width="0.5" opacity="0.1"/>
    </pattern>

    <!-- Radial Glow -->
    <radialGradient id="glowGradient" cx="50%" cy="50%" r="50%" fx="50%" fy="50%">
      <stop offset="0%" style="stop-color:#3B82F6;stop-opacity:0.1" />
      <stop offset="100%" style="stop-color:#3B82F6;stop-opacity:0" />
    </radialGradient>

    <!-- Shoe Silhouette Filter -->
    <filter id="softBlur">
      <feGaussianBlur in="SourceGraphic" stdDeviation="2" />
    </filter>
  </defs>

  <!-- Base Layer -->
  <rect width="100%" height="100%" fill="url(#backgroundGradient)"/>
  
  <!-- Luxury Pattern Layer -->
  <rect width="100%" height="100%" fill="url(#luxuryPattern)"/>
  
  <!-- Arabic-Inspired Pattern Layer -->
  <rect width="100%" height="100%" fill="url(#arabicPattern)"/>

  <!-- Dynamic Wave Elements -->
  <path d="M0,211 C97.5,191 292.5,231 390,211" stroke="url(#accentGradient)" stroke-width="100" fill="none" opacity="0.4"/>
  <path d="M0,633 C97.5,613 292.5,653 390,633" stroke="url(#accentGradient)" stroke-width="100" fill="none" opacity="0.4"/>
  
  <!-- Premium Accent Lines -->
  <g opacity="0.15" stroke="#60A5FA" stroke-width="0.5">
    <line x1="0" y1="100" x2="390" y2="100"/>
    <line x1="0" y1="744" x2="390" y2="744"/>
  </g>

  <!-- Subtle Geometric Shapes -->
  <g opacity="0.1">
    <circle cx="195" cy="211" r="100" fill="url(#glowGradient)"/>
    <circle cx="195" cy="633" r="100" fill="url(#glowGradient)"/>
  </g>

  <!-- Refined Corner Elements -->
  <path d="M0,0 L50,0 Q60,0 60,10 L60,50" stroke="#334155" stroke-width="0.5" opacity="0.2" fill="none"/>
  <path d="M390,0 L340,0 Q330,0 330,10 L330,50" stroke="#334155" stroke-width="0.5" opacity="0.2" fill="none"/>
  <path d="M0,844 L50,844 Q60,844 60,834 L60,794" stroke="#334155" stroke-width="0.5" opacity="0.2" fill="none"/>
  <path d="M390,844 L340,844 Q330,844 330,834 L330,794" stroke="#334155" stroke-width="0.5" opacity="0.2" fill="none"/>

  <!-- Elegant Shoe Silhouettes -->
  <g opacity="0.1" filter="url(#softBlur)">
    <path d="M145,211 C155,191 185,191 195,211 C205,231 175,241 165,221" fill="none" stroke="#60A5FA" stroke-width="1"/>
    <path d="M195,633 C205,613 235,613 245,633 C255,653 225,663 215,643" fill="none" stroke="#60A5FA" stroke-width="1"/>
  </g>
</svg>